<svg xmlns="http://www.w3.org/2000/svg" viewBox="0 0 240 200">
<line x1="120.00" y1="200.00" x2="120.00" y2="157.50" stroke="#059669" stroke-width="8.00" stroke-linecap="round"/>
<line x1="120.00" y1="157.50" x2="98.96" y2="136.46" stroke="#079573" stroke-width="6.87" stroke-linecap="round"/>
<line x1="98.96" y1="136.46" x2="78.14" y2="136.46" stroke="#0a947d" stroke-width="5.73" stroke-linecap="round"/>
<line x1="78.14" y1="136.46" x2="67.83" y2="146.77" stroke="#0d9488" stroke-width="4.60" stroke-linecap="round"/>
<line x1="67.83" y1="146.77" x2="67.83" y2="156.98" stroke="#5a975e" stroke-width="3.47" stroke-linecap="round"/>
<line x1="67.83" y1="156.98" x2="72.88" y2="162.03" stroke="#a79a34" stroke-width="2.33" stroke-linecap="round"/>
<line x1="72.88" y1="162.03" x2="77.88" y2="162.03" stroke="#f59e0b" stroke-width="1.20" stroke-linecap="round"/>
<line x1="72.88" y1="162.03" x2="72.88" y2="167.03" stroke="#f59e0b" stroke-width="1.20" stroke-linecap="round"/>
<line x1="67.83" y1="156.98" x2="62.78" y2="162.03" stroke="#a79a34" stroke-width="2.33" stroke-linecap="round"/>
<line x1="62.78" y1="162.03" x2="62.78" y2="167.03" stroke="#f59e0b" stroke-width="1.20" stroke-linecap="round"/>
<line x1="62.78" y1="162.03" x2="57.78" y2="162.03" stroke="#f59e0b" stroke-width="1.20" stroke-linecap="round"/>
<line x1="67.83" y1="146.77" x2="57.63" y2="146.77" stroke="#5a975e" stroke-width="3.47" stroke-linecap="round"/>
<line x1="57.63" y1="146.77" x2="52.58" y2="151.82" stroke="#a79a34" stroke-width="2.33" stroke-linecap="round"/>
<line x1="52.58" y1="151.82" x2="52.58" y2="156.82" stroke="#f59e0b" stroke-width="1.20" stroke-linecap="round"/>
<line x1="52.58" y1="151.82" x2="47.58" y2="151.82" stroke="#f59e0b" stroke-width="1.20" stroke-linecap="round"/>
<line x1="57.63" y1="146.77" x2="52.58" y2="141.72" stroke="#a79a34" stroke-width="2.33" stroke-linecap="round"/>
<line x1="52.58" y1="141.72" x2="47.58" y2="141.72" stroke="#f59e0b" stroke-width="1.20" stroke-linecap="round"/>
<line x1="52.58" y1="141.72" x2="52.58" y2="136.72" stroke="#f59e0b" stroke-width="1.20" stroke-linecap="round"/>
<line x1="78.14" y1="136.46" x2="67.83" y2="126.16" stroke="#0d9488" stroke-width="4.60" stroke-linecap="round"/>
<line x1="67.83" y1="126.16" x2="57.63" y2="126.16" stroke="#5a975e" stroke-width="3.47" stroke-linecap="round"/>
<line x1="57.63" y1="126.16" x2="52.58" y2="131.21" stroke="#a79a34" stroke-width="2.33" stroke-linecap="round"/>
<line x1="52.58" y1="131.21" x2="52.58" y2="136.21" stroke="#f59e0b" stroke-width="1.20" stroke-linecap="round"/>
<line x1="52.58" y1="131.21" x2="47.58" y2="131.21" stroke="#f59e0b" stroke-width="1.20" stroke-linecap="round"/>
<line x1="57.63" y1="126.16" x2="52.58" y2="121.10" stroke="#a79a34" stroke-width="2.33" stroke-linecap="round"/>
<line x1="52.58" y1="121.10" x2="47.58" y2="121.10" stroke="#f59e0b" stroke-width="1.20" stroke-linecap="round"/>
<line x1="52.58" y1="121.10" x2="52.58" y2="116.10" stroke="#f59e0b" stroke-width="1.20" stroke-linecap="round"/>
<line x1="67.83" y1="126.16" x2="67.83" y2="115.95" stroke="#5a975e" stroke-width="3.47" stroke-linecap="round"/>
<line x1="67.83" y1="115.95" x2="62.78" y2="110.90" stroke="#a79a34" stroke-width="2.33" stroke-linecap="round"/>
<line x1="62.78" y1="110.90" x2="57.78" y2="110.90" stroke="#f59e0b" stroke-width="1.20" stroke-linecap="round"/>
<line x1="62.78" y1="110.90" x2="62.78" y2="105.90" stroke="#f59e0b" stroke-width="1.20" stroke-linecap="round"/>
<line x1="67.83" y1="115.95" x2="72.88" y2="110.90" stroke="#a79a34" stroke-width="2.33" stroke-linecap="round"/>
<line x1="72.88" y1="110.90" x2="72.88" y2="105.90" stroke="#f59e0b" stroke-width="1.20" stroke-linecap="round"/>
<line x1="72.88" y1="110.90" x2="77.88" y2="110.90" stroke="#f59e0b" stroke-width="1.20" stroke-linecap="round"/>
<line x1="98.96" y1="136.46" x2="98.96" y2="115.64" stroke="#0a947d" stroke-width="5.73" stroke-linecap="round"/>
<line x1="98.96" y1="115.64" x2="88.66" y2="105.33" stroke="#0d9488" stroke-width="4.60" stroke-linecap="round"/>
<line x1="88.66" y1="105.33" x2="78.45" y2="105.33" stroke="#5a975e" stroke-width="3.47" stroke-linecap="round"/>
<line x1="78.45" y1="105.33" x2="73.40" y2="110.38" stroke="#a79a34" stroke-width="2.33" stroke-linecap="round"/>
<line x1="73.40" y1="110.38" x2="73.40" y2="115.38" stroke="#f59e0b" stroke-width="1.20" stroke-linecap="round"/>
<line x1="73.40" y1="110.38" x2="68.40" y2="110.38" stroke="#f59e0b" stroke-width="1.20" stroke-linecap="round"/>
<line x1="78.45" y1="105.33" x2="73.40" y2="100.28" stroke="#a79a34" stroke-width="2.33" stroke-linecap="round"/>
<line x1="73.40" y1="100.28" x2="68.40" y2="100.28" stroke="#f59e0b" stroke-width="1.20" stroke-linecap="round"/>
<line x1="73.40" y1="100.28" x2="73.40" y2="95.28" stroke="#f59e0b" stroke-width="1.20" stroke-linecap="round"/>
<line x1="88.66" y1="105.33" x2="88.66" y2="95.13" stroke="#5a975e" stroke-width="3.47" stroke-linecap="round"/>
<line x1="88.66" y1="95.13" x2="83.60" y2="90.08" stroke="#a79a34" stroke-width="2.33" stroke-linecap="round"/>
<line x1="83.60" y1="90.08" x2="78.60" y2="90.08" stroke="#f59e0b" stroke-width="1.20" stroke-linecap="round"/>
<line x1="83.60" y1="90.08" x2="83.60" y2="85.08" stroke="#f59e0b" stroke-width="1.20" stroke-linecap="round"/>
<line x1="88.66" y1="95.13" x2="93.71" y2="90.08" stroke="#a79a34" stroke-width="2.33" stroke-linecap="round"/>
<line x1="93.71" y1="90.08" x2="93.71" y2="85.08" stroke="#f59e0b" stroke-width="1.20" stroke-linecap="round"/>
<line x1="93.71" y1="90.08" x2="98.71" y2="90.08" stroke="#f59e0b" stroke-width="1.20" stroke-linecap="round"/>
<line x1="98.96" y1="115.64" x2="109.27" y2="105.33" stroke="#0d9488" stroke-width="4.60" stroke-linecap="round"/>
<line x1="109.27" y1="105.33" x2="109.27" y2="95.13" stroke="#5a975e" stroke-width="3.47" stroke-linecap="round"/>
<line x1="109.27" y1="95.13" x2="104.22" y2="90.08" stroke="#a79a34" stroke-width="2.33" stroke-linecap="round"/>
<line x1="104.22" y1="90.08" x2="99.22" y2="90.08" stroke="#f59e0b" stroke-width="1.20" stroke-linecap="round"/>
<line x1="104.22" y1="90.08" x2="104.22" y2="85.08" stroke="#f59e0b" stroke-width="1.20" stroke-linecap="round"/>
<line x1="109.27" y1="95.13" x2="114.32" y2="90.08" stroke="#a79a34" stroke-width="2.33" stroke-linecap="round"/>
<line x1="114.32" y1="90.08" x2="114.32" y2="85.08" stroke="#f59e0b" stroke-width="1.20" stroke-linecap="round"/>
<line x1="114.32" y1="90.08" x2="119.32" y2="90.08" stroke="#f59e0b" stroke-width="1.20" stroke-linecap="round"/>
<line x1="109.27" y1="105.33" x2="119.48" y2="105.33" stroke="#5a975e" stroke-width="3.47" stroke-linecap="round"/>
<line x1="119.48" y1="105.33" x2="124.53" y2="100.28" stroke="#a79a34" stroke-width="2.33" stroke-linecap="round"/>
<line x1="124.53" y1="100.28" x2="124.53" y2="95.28" stroke="#f59e0b" stroke-width="1.20" stroke-linecap="round"/>
<line x1="124.53" y1="100.28" x2="129.53" y2="100.28" stroke="#f59e0b" stroke-width="1.20" stroke-linecap="round"/>
<line x1="119.48" y1="105.33" x2="124.53" y2="110.38" stroke="#a79a34" stroke-width="2.33" stroke-linecap="round"/>
<line x1="124.53" y1="110.38" x2="129.53" y2="110.38" stroke="#f59e0b" stroke-width="1.20" stroke-linecap="round"/>
<line x1="124.53" y1="110.38" x2="124.53" y2="115.38" stroke="#f59e0b" stroke-width="1.20" stroke-linecap="round"/>
<line x1="120.00" y1="157.50" x2="141.04" y2="136.46" stroke="#079573" stroke-width="6.87" stroke-linecap="round"/>
<line x1="141.04" y1="136.46" x2="141.04" y2="115.64" stroke="#0a947d" stroke-width="5.73" stroke-linecap="round"/>
<line x1="141.04" y1="115.64" x2="130.73" y2="105.33" stroke="#0d9488" stroke-width="4.60" stroke-linecap="round"/>
<line x1="130.73" y1="105.33" x2="120.52" y2="105.33" stroke="#5a975e" stroke-width="3.47" stroke-linecap="round"/>
<line x1="120.52" y1="105.33" x2="115.47" y2="110.38" stroke="#a79a34" stroke-width="2.33" stroke-linecap="round"/>
<line x1="115.47" y1="110.38" x2="115.47" y2="115.38" stroke="#f59e0b" stroke-width="1.20" stroke-linecap="round"/>
<line x1="115.47" y1="110.38" x2="110.47" y2="110.38" stroke="#f59e0b" stroke-width="1.20" stroke-linecap="round"/>
<line x1="120.52" y1="105.33" x2="115.47" y2="100.28" stroke="#a79a34" stroke-width="2.33" stroke-linecap="round"/>
<line x1="115.47" y1="100.28" x2="110.47" y2="100.28" stroke="#f59e0b" stroke-width="1.20" stroke-linecap="round"/>
<line x1="115.47" y1="100.28" x2="115.47" y2="95.28" stroke="#f59e0b" stroke-width="1.20" stroke-linecap="round"/>
<line x1="130.73" y1="105.33" x2="130.73" y2="95.13" stroke="#5a975e" stroke-width="3.47" stroke-linecap="round"/>
<line x1="130.73" y1="95.13" x2="125.68" y2="90.08" stroke="#a79a34" stroke-width="2.33" stroke-linecap="round"/>
<line x1="125.68" y1="90.08" x2="120.68" y2="90.08" stroke="#f59e0b" stroke-width="1.20" stroke-linecap="round"/>
<line x1="125.68" y1="90.08" x2="125.68" y2="85.08" stroke="#f59e0b" stroke-width="1.20" stroke-linecap="round"/>
<line x1="130.73" y1="95.13" x2="135.78" y2="90.08" stroke="#a79a34" stroke-width="2.33" stroke-linecap="round"/>
<line x1="135.78" y1="90.08" x2="135.78" y2="85.08" stroke="#f59e0b" stroke-width="1.20" stroke-linecap="round"/>
<line x1="135.78" y1="90.08" x2="140.78" y2="90.08" stroke="#f59e0b" stroke-width="1.20" stroke-linecap="round"/>
<line x1="141.04" y1="115.64" x2="151.34" y2="105.33" stroke="#0d9488" stroke-width="4.60" stroke-linecap="round"/>
<line x1="151.34" y1="105.33" x2="151.34" y2="95.13" stroke="#5a975e" stroke-width="3.47" stroke-linecap="round"/>
<line x1="151.34" y1="95.13" x2="146.29" y2="90.08" stroke="#a79a34" stroke-width="2.33" stroke-linecap="round"/>
<line x1="146.29" y1="90.08" x2="141.29" y2="90.08" stroke="#f59e0b" stroke-width="1.20" stroke-linecap="round"/>
<line x1="146.29" y1="90.08" x2="146.29" y2="85.08" stroke="#f59e0b" stroke-width="1.20" stroke-linecap="round"/>
<line x1="151.34" y1="95.13" x2="156.40" y2="90.08" stroke="#a79a34" stroke-width="2.33" stroke-linecap="round"/>
<line x1="156.40" y1="90.08" x2="156.40" y2="85.08" stroke="#f59e0b" stroke-width="1.20" stroke-linecap="round"/>
<line x1="156.40" y1="90.08" x2="161.40" y2="90.08" stroke="#f59e0b" stroke-width="1.20" stroke-linecap="round"/>
<line x1="151.34" y1="105.33" x2="161.55" y2="105.33" stroke="#5a975e" stroke-width="3.47" stroke-linecap="round"/>
<line x1="161.55" y1="105.33" x2="166.60" y2="100.28" stroke="#a79a34" stroke-width="2.33" stroke-linecap="round"/>
<line x1="166.60" y1="100.28" x2="166.60" y2="95.28" stroke="#f59e0b" stroke-width="1.20" stroke-linecap="round"/>
<line x1="166.60" y1="100.28" x2="171.60" y2="100.28" stroke="#f59e0b" stroke-width="1.20" stroke-linecap="round"/>
<line x1="161.55" y1="105.33" x2="166.60" y2="110.38" stroke="#a79a34" stroke-width="2.33" stroke-linecap="round"/>
<line x1="166.60" y1="110.38" x2="171.60" y2="110.38" stroke="#f59e0b" stroke-width="1.20" stroke-linecap="round"/>
<line x1="166.60" y1="110.38" x2="166.60" y2="115.38" stroke="#f59e0b" stroke-width="1.20" stroke-linecap="round"/>
<line x1="141.04" y1="136.46" x2="161.86" y2="136.46" stroke="#0a947d" stroke-width="5.73" stroke-linecap="round"/>
<line x1="161.86" y1="136.46" x2="172.17" y2="126.16" stroke="#0d9488" stroke-width="4.60" stroke-linecap="round"/>
<line x1="172.17" y1="126.16" x2="172.17" y2="115.95" stroke="#5a975e" stroke-width="3.47" stroke-linecap="round"/>
<line x1="172.17" y1="115.95" x2="167.12" y2="110.90" stroke="#a79a34" stroke-width="2.33" stroke-linecap="round"/>
<line x1="167.12" y1="110.90" x2="162.12" y2="110.90" stroke="#f59e0b" stroke-width="1.20" stroke-linecap="round"/>
<line x1="167.12" y1="110.90" x2="167.12" y2="105.90" stroke="#f59e0b" stroke-width="1.20" stroke-linecap="round"/>
<line x1="172.17" y1="115.95" x2="177.22" y2="110.90" stroke="#a79a34" stroke-width="2.33" stroke-linecap="round"/>
<line x1="177.22" y1="110.90" x2="177.22" y2="105.90" stroke="#f59e0b" stroke-width="1.20" stroke-linecap="round"/>
<line x1="177.22" y1="110.90" x2="182.22" y2="110.90" stroke="#f59e0b" stroke-width="1.20" stroke-linecap="round"/>
<line x1="172.17" y1="126.16" x2="182.37" y2="126.16" stroke="#5a975e" stroke-width="3.47" stroke-linecap="round"/>
<line x1="182.37" y1="126.16" x2="187.42" y2="121.10" stroke="#a79a34" stroke-width="2.33" stroke-linecap="round"/>
<line x1="187.42" y1="121.10" x2="187.42" y2="116.10" stroke="#f59e0b" stroke-width="1.20" stroke-linecap="round"/>
<line x1="187.42" y1="121.10" x2="192.42" y2="121.10" stroke="#f59e0b" stroke-width="1.20" stroke-linecap="round"/>
<line x1="182.37" y1="126.16" x2="187.42" y2="131.21" stroke="#a79a34" stroke-width="2.33" stroke-linecap="round"/>
<line x1="187.42" y1="131.21" x2="192.42" y2="131.21" stroke="#f59e0b" stroke-width="1.20" stroke-linecap="round"/>
<line x1="187.42" y1="131.21" x2="187.42" y2="136.21" stroke="#f59e0b" stroke-width="1.20" stroke-linecap="round"/>
<line x1="161.86" y1="136.46" x2="172.17" y2="146.77" stroke="#0d9488" stroke-width="4.60" stroke-linecap="round"/>
<line x1="172.17" y1="146.77" x2="182.37" y2="146.77" stroke="#5a975e" stroke-width="3.47" stroke-linecap="round"/>
<line x1="182.37" y1="146.77" x2="187.42" y2="141.72" stroke="#a79a34" stroke-width="2.33" stroke-linecap="round"/>
<line x1="187.42" y1="141.72" x2="187.42" y2="136.72" stroke="#f59e0b" stroke-width="1.20" stroke-linecap="round"/>
<line x1="187.42" y1="141.72" x2="192.42" y2="141.72" stroke="#f59e0b" stroke-width="1.20" stroke-linecap="round"/>
<line x1="182.37" y1="146.77" x2="187.42" y2="151.82" stroke="#a79a34" stroke-width="2.33" stroke-linecap="round"/>
<line x1="187.42" y1="151.82" x2="192.42" y2="151.82" stroke="#f59e0b" stroke-width="1.20" stroke-linecap="round"/>
<line x1="187.42" y1="151.82" x2="187.42" y2="156.82" stroke="#f59e0b" stroke-width="1.20" stroke-linecap="round"/>
<line x1="172.17" y1="146.77" x2="172.17" y2="156.98" stroke="#5a975e" stroke-width="3.47" stroke-linecap="round"/>
<line x1="172.17" y1="156.98" x2="177.22" y2="162.03" stroke="#a79a34" stroke-width="2.33" stroke-linecap="round"/>
<line x1="177.22" y1="162.03" x2="182.22" y2="162.03" stroke="#f59e0b" stroke-width="1.20" stroke-linecap="round"/>
<line x1="177.22" y1="162.03" x2="177.22" y2="167.03" stroke="#f59e0b" stroke-width="1.20" stroke-linecap="round"/>
<line x1="172.17" y1="156.98" x2="167.12" y2="162.03" stroke="#a79a34" stroke-width="2.33" stroke-linecap="round"/>
<line x1="167.12" y1="162.03" x2="167.12" y2="167.03" stroke="#f59e0b" stroke-width="1.20" stroke-linecap="round"/>
<line x1="167.12" y1="162.03" x2="162.12" y2="162.03" stroke="#f59e0b" stroke-width="1.20" stroke-linecap="round"/>
<circle cx="77.88" cy="162.03" r="3.00" fill="#059669"/>
<circle cx="72.88" cy="167.03" r="3.00" fill="#84cc16"/>
<circle cx="62.78" cy="167.03" r="3.00" fill="#b91c1c"/>
<circle cx="57.78" cy="162.03" r="3.00" fill="#a8a29e"/>
<circle cx="52.58" cy="156.82" r="3.00" fill="#ea580c"/>
<circle cx="47.58" cy="151.82" r="3.00" fill="#b45309"/>
<circle cx="47.58" cy="141.72" r="3.00" fill="#eab308"/>
<circle cx="52.58" cy="136.72" r="3.00" fill="#0891b2"/>
<circle cx="52.58" cy="136.21" r="3.00" fill="#4d7c0f"/>
<circle cx="47.58" cy="131.21" r="3.00" fill="#1d4ed8"/>
<circle cx="47.58" cy="121.10" r="3.00" fill="#7c2d12"/>
<circle cx="52.58" cy="116.10" r="3.00" fill="#059669"/>
<circle cx="57.78" cy="110.90" r="3.00" fill="#84cc16"/>
<circle cx="62.78" cy="105.90" r="3.00" fill="#b91c1c"/>
<circle cx="72.88" cy="105.90" r="3.00" fill="#a8a29e"/>
<circle cx="77.88" cy="110.90" r="3.00" fill="#ea580c"/>
<circle cx="73.40" cy="115.38" r="3.00" fill="#b45309"/>
<circle cx="68.40" cy="110.38" r="3.00" fill="#eab308"/>
<circle cx="68.40" cy="100.28" r="3.00" fill="#0891b2"/>
<circle cx="73.40" cy="95.28" r="3.00" fill="#4d7c0f"/>
<circle cx="78.60" cy="90.08" r="3.00" fill="#1d4ed8"/>
<circle cx="83.60" cy="85.08" r="3.00" fill="#7c2d12"/>
<circle cx="93.71" cy="85.08" r="3.00" fill="#059669"/>
<circle cx="98.71" cy="90.08" r="3.00" fill="#84cc16"/>
<circle cx="99.22" cy="90.08" r="3.00" fill="#b91c1c"/>
<circle cx="104.22" cy="85.08" r="3.00" fill="#a8a29e"/>
<circle cx="114.32" cy="85.08" r="3.00" fill="#ea580c"/>
<circle cx="119.32" cy="90.08" r="3.00" fill="#b45309"/>
<circle cx="124.53" cy="95.28" r="3.00" fill="#eab308"/>
<circle cx="129.53" cy="100.28" r="3.00" fill="#0891b2"/>
<circle cx="129.53" cy="110.38" r="3.00" fill="#4d7c0f"/>
<circle cx="124.53" cy="115.38" r="3.00" fill="#1d4ed8"/>
<circle cx="115.47" cy="115.38" r="3.00" fill="#7c2d12"/>
<circle cx="110.47" cy="110.38" r="3.00" fill="#059669"/>
<circle cx="110.47" cy="100.28" r="3.00" fill="#84cc16"/>
<circle cx="115.47" cy="95.28" r="3.00" fill="#b91c1c"/>
<circle cx="120.68" cy="90.08" r="3.00" fill="#a8a29e"/>
<circle cx="125.68" cy="85.08" r="3.00" fill="#ea580c"/>
<circle cx="135.78" cy="85.08" r="3.00" fill="#b45309"/>
<circle cx="140.78" cy="90.08" r="3.00" fill="#eab308"/>
<circle cx="141.29" cy="90.08" r="3.00" fill="#0891b2"/>
<circle cx="146.29" cy="85.08" r="3.00" fill="#4d7c0f"/>
<circle cx="156.40" cy="85.08" r="3.00" fill="#1d4ed8"/>
<circle cx="161.40" cy="90.08" r="3.00" fill="#7c2d12"/>
<circle cx="166.60" cy="95.28" r="3.00" fill="#059669"/>
<circle cx="171.60" cy="100.28" r="3.00" fill="#84cc16"/>
<circle cx="171.60" cy="110.38" r="3.00" fill="#b91c1c"/>
<circle cx="166.60" cy="115.38" r="3.00" fill="#a8a29e"/>
<circle cx="162.12" cy="110.90" r="3.00" fill="#ea580c"/>
<circle cx="167.12" cy="105.90" r="3.00" fill="#b45309"/>
<circle cx="177.22" cy="105.90" r="3.00" fill="#eab308"/>
<circle cx="182.22" cy="110.90" r="3.00" fill="#0891b2"/>
<circle cx="187.42" cy="116.10" r="3.00" fill="#4d7c0f"/>
<circle cx="192.42" cy="121.10" r="3.00" fill="#1d4ed8"/>
<circle cx="192.42" cy="131.21" r="3.00" fill="#7c2d12"/>
<circle cx="187.42" cy="136.21" r="3.00" fill="#059669"/>
<circle cx="187.42" cy="136.72" r="3.00" fill="#84cc16"/>
<circle cx="192.42" cy="141.72" r="3.00" fill="#b91c1c"/>
<circle cx="192.42" cy="151.82" r="3.00" fill="#a8a29e"/>
<circle cx="187.42" cy="156.82" r="3.00" fill="#ea580c"/>
<circle cx="182.22" cy="162.03" r="3.00" fill="#b45309"/>
<circle cx="177.22" cy="167.03" r="3.00" fill="#eab308"/>
<circle cx="167.12" cy="167.03" r="3.00" fill="#0891b2"/>
<circle cx="162.12" cy="162.03" r="3.00" fill="#4d7c0f"/>
</svg>
